<svg xmlns="http://www.w3.org/2000/svg" viewBox="0 0 24 30" x="0px" y="0px"><title>taka_bangladesh_trade_BDT</title><path d="M17,14a2,2,0,0,0-.18,4,3.09,3.09,0,0,1-.8,1.24A3,3,0,0,1,13.7,20,3.13,3.13,0,0,1,11,16.83V12h4a1,1,0,0,0,0-2H11V6A3,3,0,0,0,5,6,1,1,0,0,0,7,6,1,1,0,0,1,9,6v4H7a1,1,0,0,0,0,2H9v4.83A5.14,5.14,0,0,0,13.51,22L14,22a5,5,0,0,0,5-5V16A2,2,0,0,0,17,14Z"/><text x="0" y="39" fill="#000000" font-size="5px" font-weight="bold" font-family="'Helvetica Neue', Helvetica, Arial-Unicode, Arial, Sans-serif">Created by P Thanga Vignesh</text><text x="0" y="44" fill="#000000" font-size="5px" font-weight="bold" font-family="'Helvetica Neue', Helvetica, Arial-Unicode, Arial, Sans-serif">from the Noun Project</text></svg>